<svg width="15" height="15" viewBox="0 0 15 15" fill="none" xmlns="http://www.w3.org/2000/svg">
    <path d="M6.8623 11.4021H2.31755V10.0038H6.8623C7.30891 10.0039 7.74696 10.1263 8.12899 10.3576C8.51101 10.589 8.82245 10.9204 9.02956 11.3161C9.23667 11.7118 9.33155 12.1566 9.30391 12.6024C9.27628 13.0481 9.12719 13.4778 8.8728 13.8449C8.61841 14.2119 8.26842 14.5024 7.86074 14.6848C7.45307 14.8672 7.00326 14.9345 6.56005 14.8795C6.11684 14.8245 5.69714 14.6492 5.34641 14.3728C4.99568 14.0963 4.7273 13.7291 4.57035 13.3109L5.87993 12.8194C5.94718 12.9986 6.06219 13.156 6.21249 13.2745C6.36279 13.393 6.54266 13.4681 6.73261 13.4917C6.92255 13.5153 7.11533 13.4865 7.29006 13.4083C7.46479 13.3302 7.61479 13.2057 7.72383 13.0484C7.83287 12.8911 7.89678 12.7069 7.90864 12.5159C7.9205 12.3249 7.87985 12.1342 7.7911 11.9646C7.70235 11.7951 7.56888 11.653 7.40516 11.5538C7.24144 11.4547 7.05371 11.4022 6.8623 11.4021ZM3.01674 7.20699H12.4558C12.9025 7.20715 13.3405 7.32952 13.7225 7.56085C14.1046 7.79218 14.416 8.12364 14.6231 8.51933C14.8302 8.91501 14.9251 9.35983 14.8975 9.80558C14.8698 10.2513 14.7207 10.681 14.4663 11.0481C14.212 11.4152 13.862 11.7056 13.4543 11.888C13.0466 12.0704 12.5968 12.1377 12.1536 12.0827C11.7104 12.0277 11.2907 11.8525 10.9399 11.576C10.5892 11.2995 10.3208 10.9323 10.1639 10.5142L11.4735 10.0226C11.5407 10.2018 11.6557 10.3592 11.806 10.4777C11.9563 10.5963 12.1362 10.6714 12.3262 10.695C12.5161 10.7185 12.7089 10.6897 12.8836 10.6116C13.0583 10.5334 13.2083 10.4089 13.3174 10.2516C13.4264 10.0943 13.4903 9.91017 13.5022 9.71914C13.514 9.5281 13.4734 9.33746 13.3846 9.16787C13.2959 8.99829 13.1624 8.85622 12.9987 8.75707C12.835 8.65791 12.6473 8.60546 12.4558 8.60538H3.01674C2.46043 8.60538 1.9269 8.38438 1.53353 7.99101C1.14015 7.59764 0.919159 7.06411 0.919159 6.5078C0.919159 5.95149 1.14015 5.41796 1.53353 5.02459C1.9269 4.63121 2.46043 4.41022 3.01674 4.41022H8.95988C9.15128 4.41014 9.33902 4.35768 9.50274 4.25853C9.66646 4.15938 9.79993 4.01731 9.88868 3.84772C9.97743 3.67814 10.0181 3.4875 10.0062 3.29646C9.99436 3.10542 9.93045 2.92127 9.82141 2.76396C9.71237 2.60665 9.56236 2.48218 9.38764 2.40403C9.21291 2.32589 9.02013 2.29705 8.83019 2.32064C8.64024 2.34422 8.46037 2.41934 8.31007 2.53786C8.15977 2.65637 8.04476 2.81375 7.97751 2.99295L6.66792 2.50212C6.86962 1.9657 7.25313 1.51706 7.75163 1.23435C8.25013 0.951646 8.83202 0.852805 9.39591 0.95505C9.9598 1.0573 10.4699 1.35415 10.8375 1.79388C11.205 2.23361 11.4065 2.78835 11.4071 3.36143C11.4071 4.01046 11.1492 4.63291 10.6903 5.09184C10.2314 5.55078 9.60891 5.8086 8.95988 5.8086H3.01674C2.8313 5.8086 2.65346 5.88227 2.52233 6.01339C2.39121 6.14452 2.31755 6.32236 2.31755 6.5078C2.31755 6.69324 2.39121 6.87108 2.52233 7.0022C2.65346 7.13333 2.8313 7.20699 3.01674 7.20699Z" fill="white"/>
</svg>
